<svg width="65" height="40" xmlns="http://www.w3.org/2000/svg">
 <defs>
  <linearGradient id="linearGradient3378">
   <stop stop-color="#ffffff" id="stop3380" offset="0"/>
   <stop stop-color="#ffffff" stop-opacity="0" id="stop3382" offset="1"/>
  </linearGradient>
  <linearGradient id="linearGradient3252">
   <stop stop-color="#000000" id="stop3254" offset="0"/>
   <stop stop-color="#000000" stop-opacity="0" id="stop3256" offset="1"/>
  </linearGradient>
  <linearGradient id="linearGradient3350">
   <stop stop-color="#ffffff" id="stop3352" offset="0"/>
   <stop stop-color="#ffffff" stop-opacity="0" id="stop3354" offset="1"/>
  </linearGradient>
  <linearGradient id="linearGradient3336">
   <stop stop-color="#000000" stop-opacity="0.50588" id="stop3338" offset="0"/>
   <stop stop-color="#000000" stop-opacity="0" id="stop3340" offset="1"/>
  </linearGradient>
  <linearGradient id="linearGradient3181">
   <stop stop-color="#ffffff" stop-opacity="0.30928" id="stop3183" offset="0"/>
   <stop stop-color="#c3ffff" stop-opacity="0" id="stop3185" offset="1"/>
  </linearGradient>
  <radialGradient gradientTransform="matrix(1.4976792,0,0,1.4976792,-121.21193,-108.36843)" gradientUnits="userSpaceOnUse" xlink:href="#linearGradient3181" id="radialGradient3306" fy="159.53757" fx="163.41444" r="120.18595" cy="159.53757" cx="163.41444"/>
  <radialGradient gradientTransform="matrix(1.1232594,0,0,-1.1232594,288.84505,353.75475)" gradientUnits="userSpaceOnUse" xlink:href="#linearGradient3181" id="radialGradient3320" fy="-138.31308" fx="200.03055" r="120.18595" cy="-138.31308" cx="200.03055"/>
  <linearGradient xlink:href="#linearGradient3350" id="linearGradient3342" y2="0.64829" x2="0.64833" y1="-0.00282" x1="-0.00295"/>
  <linearGradient xlink:href="#linearGradient3336" id="linearGradient3348" y2="0.64829" x2="0.64833" y1="1.00329" x1="1.00343"/>
  <linearGradient xlink:href="#linearGradient3252" id="linearGradient3258" y2="0.5273" x2="0.5273" y1="-0.00385" x1="-0.00385"/>
  <linearGradient xlink:href="#linearGradient3378" id="linearGradient3384" y2="0.5273" x2="0.5273" y1="1.00667" x1="1.00667"/>
 </defs>
 <g>
  <title>Layer 1</title>
  <g display="inline" id="layer2"/>
  <g display="inline" id="layer1">
   <path fill="#000000" fill-rule="nonzero" stroke-width="2" stroke-linecap="round" stroke-miterlimit="4" id="path2178" d="m326.25,16.875c-170.77499,0 -309.375,138.59999 -309.375,309.375c0,170.77499 138.60001,309.375 309.375,309.375c170.77499,0 309.375,-138.60001 309.375,-309.375c0,-170.77499 -138.59998,-309.375 -309.375,-309.375zm0,237.375c39.74399,0 72,32.25601 72,72c0,39.74399 -32.25601,72 -72,72c-39.74399,0 -72,-32.25601 -72,-72c0,-39.74399 32.25601,-72 72,-72z"/>
   <path opacity="0.5" fill="url(#radialGradient3320)" fill-rule="nonzero" stroke-width="2" stroke-linecap="round" stroke-miterlimit="4" stroke-opacity="0.12549" id="path3189" d="m513.53125,378.6875c-5.17462,0 -10.28885,0.27606 -15.3125,0.84375c-17.52774,56.56808 -62.22717,101.23035 -118.8125,118.71875c-0.57721,5.06473 -0.875,10.21912 -0.875,15.4375c0,74.52002 60.48001,135 135,135c74.52002,0 135,-60.47998 135,-135c0,-74.51999 -60.47998,-135 -135,-135z"/>
   <path fill="url(#radialGradient3306)" fill-rule="nonzero" stroke-width="2" stroke-linecap="round" stroke-miterlimit="4" stroke-opacity="0.12549" id="path3171" d="m268.34375,22.3125c-124.25949,23.56145 -222.28196,121.50349 -245.96875,245.71875c26.39732,45.6954 72.28917,78.741 126.28125,87.71875c-1.58501,-9.6001 -2.40625,-19.45306 -2.40625,-29.5c-0.00002,-99.36 80.64,-180 180,-180c10.11252,0 20.02808,0.83217 29.6875,2.4375c-8.92245,-54.01176 -41.92609,-99.93275 -87.59375,-126.375zm57.90625,226.78125c-42.58286,0 -77.15627,34.57339 -77.15625,77.15625c0,5.73239 0.65591,11.31064 1.84375,16.6875c3.03612,-1.3407 6.02347,-2.7804 8.96875,-4.28125c-0.74887,-4.02374 -1.15625,-8.16653 -1.15625,-12.40625c0,-37.26001 30.23999,-67.5 67.5,-67.5c4.26291,0 8.42438,0.4306 12.46875,1.1875c1.50311,-2.94196 2.9379,-5.93607 4.28125,-8.96875c-5.39716,-1.19733 -10.99414,-1.875 -16.75,-1.875z"/>
   <path fill="#000000" fill-rule="nonzero" stroke-width="2" stroke-linecap="round" stroke-miterlimit="4" id="path3325" d="m326.25,16.875c-170.77499,0 -309.375,138.59999 -309.375,309.375c0,170.77499 138.60001,309.375 309.375,309.375c170.77499,0 309.375,-138.60001 309.375,-309.375c0,-170.77499 -138.59998,-309.375 -309.375,-309.375zm0,10.125c165.186,0 299.25,134.064 299.25,299.25c0,165.186 -134.064,299.25 -299.25,299.25c-165.186,0 -299.25,-134.064 -299.25,-299.25c0,-165.186 134.064,-299.25 299.25,-299.25z"/>
   <path fill="none" fill-rule="evenodd" stroke="#f0f0ff" stroke-width="1px" stroke-opacity="0.03922" id="path3332" d="m442.47147,446.08542c-64.11038,64.90808 -171.62247,65.0603 -236.14938,0.68353c-64.95918,-64.80798 -65.1113,-173.48944 -0.68311,-238.71788c64.85919,-65.66479 173.62595,-65.81833 238.90527,-0.68953c65.71539,65.56384 65.8688,175.51178 0.68906,241.49973c-65.6145,66.4281 -175.64691,66.58295 -241.68523,0.69553c-66.47816,-66.32629 -66.63292,-177.55176 -0.69504,-244.3058c66.37645,-67.19803 177.6855,-67.35422 244.4894,-0.70155c67.24759,67.09534 67.40366,179.60944 0.70105,247.13626c-67.14499,67.97464 -179.74173,68.13217 -247.31787,0.70761c-68.02362,-67.87109 -68.18106,-181.68494 -0.70711,-249.99123c67.92018,-68.75797 181.81578,-68.91685 250.17082,-0.7137c68.8064,68.6535 68.96515,183.77838 0.71317,252.87082c-68.70203,69.54803 -183.90771,69.70831 -253.04836,0.71985c-69.59589,-69.44272 -69.75603,-185.88986 -0.7193,-255.77528c69.49065,-70.34489 186.01765,-70.50652 255.95067,-0.726c70.39215,70.23868 70.55365,188.0195 0.72546,258.70468c-70.28604,71.14859 -188.14572,71.31161 -258.87788,0.73221c-71.19527,-71.04147 -71.35812,-190.16742 -0.73164,-261.65916c71.08823,-71.95915 190.29196,-72.12354 261.83011,-0.73845c72.00519,71.85114 72.16943,192.33362 0.73788,264.63885c-71.89725,72.77664 -192.45654,72.94241 -264.80756,0.74475c-72.82201,-72.66769 -72.98765,-194.51831 -0.74413,-267.64398c72.71318,-73.60102 194.63954,-73.7682 267.81032,-0.75101c73.64575,73.49118 73.81281,196.72153 0.7504,270.67456c-73.53601,74.43243 -196.841,74.60101 -270.8385,0.75735c-74.4765,-74.32166 -74.64494,-198.94345 -0.75674,-273.73083c74.36584,-75.27084 199.06113,-75.44084 273.89233,-0.76373c75.31421,75.15915 75.48407,201.18411 0.76309,276.81293c-75.20264,76.1163 -201.29999,76.28775 -276.97189,0.77014c-76.159,-76.00369 -76.33028,-203.44366 -0.76949,-279.92096c76.04649,-76.96891 203.55766,-77.14176 280.07735,-0.7766c77.01086,76.85536 77.18359,205.72221 0.77594,283.0551c-76.89746,77.82864 -205.83429,78.0029 -283.20886,0.78308c-77.8699,-77.71414 -78.04402,-208.01981 -0.78241,-286.2155c77.75549,-78.69553 208.12994,-78.87127 286.36655,-0.7896c78.73605,78.58011 78.91165,210.33661 0.78891,289.40228c-78.62073,79.56964 -210.44473,79.74689 -289.55057,0.79617c-79.60942,-79.45331 -79.78645,-212.67276 -0.79546,-292.61562c79.49315,-80.45106 212.77882,-80.62971 292.76109,-0.80273c80.49002,80.33372 80.66849,215.02824 0.802,295.85558c-80.37277,81.33978 -215.13223,81.5199 -295.9982,0.80939c-81.37792,-81.22147 -81.55788,-217.40326 -0.80865,-299.12242c81.25977,-82.23579 217.50516,-82.41739 299.26215,-0.81604c82.27313,82.11653 82.45453,219.7979 0.81528,302.41621c-82.15402,83.13925 -219.89761,83.3223 -302.55295,0.82272c-83.17572,-83.01895 -83.35866,-222.21225 -0.82196,-305.73715c83.05563,-84.05004 222.30975,-84.23463 305.87082,-0.82947c84.08572,83.92886 84.27011,224.64648 0.82867,309.08539c-83.96463,84.96835 -224.7417,85.15445 -309.21591,0.83624c-85.00317,-84.84619 -85.18906,-227.10065 -0.83543,-312.46103c84.88112,-85.89417 227.19356,-86.08175 312.58836,-0.84305c85.9281,85.771 86.11554,229.57483 0.84225,315.86426c-85.80505,86.82748 -229.66541,87.01663 -315.98837,0.84988c-86.86055,-86.70337 -87.04948,-232.06921 -0.84906,-319.29517c86.73653,-87.76848 232.15738,-87.95912 319.41599,-0.8568c87.80063,87.64333 87.99106,234.58385 0.85596,322.75401c-87.6756,88.71698 -234.66956,88.90918 -322.87144,0.86368c-88.74822,-88.59091 -88.9402,-237.11887 -0.86284,-326.24083c88.62221,-89.67327 237.20209,-89.867 326.35483,-0.87067c89.70352,89.54613 89.89706,239.67439 0.86978,329.75584c-89.57648,90.63724 -239.75504,90.83249 -329.86635,0.87769c-90.66649,-90.50909 -90.86155,-242.2505 -0.87677,-333.29919c90.53848,-91.60894 242.3286,-91.80576 333.40614,-0.8847c91.63721,91.47974 91.8338,244.84732 0.88376,336.871c-91.50815,92.58844 -244.92274,92.78687 -336.9743,0.89175c-92.61568,-92.45819 -92.81386,-247.46494 -0.89082,-340.47145c92.48563,-93.57573 247.5377,-93.7757 340.57106,-0.89886c93.60202,93.4445 93.80179,250.10353 0.89795,344.10072c-93.47092,94.57089 -250.17357,94.77249 -344.19656,0.90601c-94.59613,-94.43869 -94.79747,-252.76317 -0.90504,-347.7589c94.46404,-95.57405 252.8304,-95.77719 347.85088,-0.91319c95.59818,95.44075 95.80112,255.44394 0.91223,351.44614c-95.46506,96.58511 -255.50835,96.78989 -351.53424,0.92044c-96.6082,-96.45081 -96.81272,-258.146 -0.91943,-355.16267c96.474,-97.60419 258.20749,-97.81056 355.24677,-0.92767c97.62619,97.46881 97.83231,260.8694 0.92667,358.90858c-97.49094,98.63129 -260.92796,98.83929 -358.98863,0.93497c-98.65218,-98.49487 -98.85991,-263.61433 -0.93394,-362.68404c98.51588,-99.66654 263.66989,-99.87614 362.75998,-0.94231c99.68622,99.52902 99.89563,266.38083 0.94128,366.4892c-99.54892,100.70987 -266.4334,100.92111 -366.56099,0.94968c-100.7284,-100.57129 -100.9394,-269.16907 -0.94861,-370.32423c100.59,-101.76137 269.21852,-101.97424 370.39177,-0.95709c101.77872,101.62172 101.99136,271.97914 0.95596,374.18929c-101.63925,102.82111 -272.02544,103.03558 -374.25246,0.96454c-102.83725,-102.68036 -103.05153,-274.81116 -0.96344,-378.08452c102.69672,-103.88904 274.85426,-104.10522 378.14333,-0.97202c103.90399,103.74725 104.11993,277.66524 0.97089,382.01009c-103.76239,104.96527 -277.70511,105.18317 -382.06439,0.97955c-104.97903,-104.82245 -105.19664,-280.5415 -0.97841,-385.96616c104.83633,-106.0499 280.57805,-106.26944 386.01588,-0.98711c106.06238,105.90594 106.28168,283.44005 0.98596,389.95284c-105.91861,107.14294 -283.47322,107.36414 -389.99797,0.99469c-107.15409,-106.99783 -107.37503,-286.36095 -0.99353,-393.97032c107.00922,-108.24432 286.39073,-108.46723 394.01079,-1.00235c108.25421,108.09816 108.47681,289.30443 1.00116,398.01881c-108.10825,109.35419 -289.33076,109.57886 -398.05447,1.01001c-109.36278,-109.20691 -109.58713,-292.27051 -1.00883,-402.09839c109.21571,-110.47261 292.29331,-110.69893 402.12922,-1.01775c110.47986,110.32422 110.70587,295.25935 1.01648,406.20927c-110.33163,111.59961 -295.27855,111.82764 -406.23511,1.02551c-111.60545,-111.45007 -111.83321,-298.27107 -1.02425,-410.35159c111.45612,-112.73513 298.28661,-112.96491 410.3724,-1.03331c112.73962,112.5845 112.96912,301.30576 1.03204,414.52552c-112.58917,113.87933 -301.31761,114.11084 -414.54124,1.04114c-113.88241,-113.7276 -114.11362,-304.36356 -1.03985,-418.73119c113.73084,-115.03223 304.37165,-115.26548 418.74174,-1.04902c115.03387,114.87933 115.26685,307.44454 1.04773,422.9688c-114.8812,116.19385 -307.44884,116.42883 -422.9741,1.05688c-116.19407,-116.03979 -116.42877,-310.54887 -1.0556,-427.23843c116.04021,-117.36425 310.54929,-117.60102 427.23844,-1.06489c117.36151,117.20759 117.59973,313.67213 1.06744,431.53648"/>
   <path fill="#ff8a3c" fill-rule="nonzero" stroke-width="2" stroke-linecap="round" stroke-miterlimit="4" stroke-opacity="0.12549" id="path3193" d="m326.25,168.75c-86.94,0 -157.50002,70.56 -157.5,157.5c0,86.94 70.56,157.5 157.5,157.5c86.94,0 157.5,-70.56 157.5,-157.5c0,-86.94 -70.56,-157.50002 -157.5,-157.5zm0,90c37.26001,0 67.5,30.23999 67.5,67.5c0,37.26001 -30.23999,67.5 -67.5,67.5c-37.26001,0 -67.5,-30.23999 -67.5,-67.5c0,-37.26001 30.23999,-67.5 67.5,-67.5z"/>
   <path fill="none" fill-rule="evenodd" stroke="#000000" stroke-width="1px" stroke-opacity="0.49727" id="path3374" d="m440.47147,446.08542c-64.11038,64.90808 -171.62247,65.0603 -236.14937,0.68356c-64.95918,-64.80801 -65.1113,-173.48947 -0.68311,-238.71791c64.85918,-65.66479 173.62596,-65.81831 238.90529,-0.68953c65.71539,65.56384 65.8688,175.51181 0.68906,241.49976c-65.61453,66.42807 -175.64694,66.58292 -241.68524,0.6955c-66.47816,-66.32626 -66.63293,-177.55173 -0.69505,-244.30579c66.37645,-67.19803 177.6855,-67.35423 244.4894,-0.70155c67.24759,67.09535 67.40366,179.60945 0.70105,247.13625c-67.14496,67.97464 -179.74173,68.13217 -247.31786,0.70761c-68.02364,-67.87109 -68.18106,-181.68494 -0.70711,-249.99121c67.92017,-68.75797 181.8158,-68.91685 250.17081,-0.71371c68.8064,68.65353 68.96515,183.77841 0.7132,252.87085c-68.70206,69.548 -183.90775,69.70828 -253.04837,0.71982c-69.5959,-69.44269 -69.75603,-185.88986 -0.7193,-255.77527c69.49063,-70.34491 186.01767,-70.50652 255.95068,-0.726c70.39212,70.23866 70.55368,188.01952 0.72543,258.7047c-70.28601,71.14856 -188.14572,71.31158 -258.87787,0.73218c-71.19527,-71.04147 -71.35812,-190.16739 -0.73164,-261.65915c71.08821,-71.95916 190.29195,-72.12354 261.83012,-0.73845c72.00522,71.85112 72.16946,192.33363 0.73785,264.63887c-71.89725,72.77661 -192.45651,72.94244 -264.80754,0.74472c-72.82201,-72.66769 -72.98766,-194.51831 -0.74413,-267.64397c72.7132,-73.60102 194.63953,-73.7682 267.8103,-0.75101c73.64575,73.49117 73.81281,196.72154 0.7504,270.67455c-73.53601,74.43243 -196.841,74.60101 -270.83849,0.75735c-74.4765,-74.32166 -74.64494,-198.94342 -0.75674,-273.73083c74.36583,-75.27083 199.06111,-75.44083 273.89232,-0.76372c75.31421,75.15916 75.48407,201.18413 0.76312,276.81291c-75.20267,76.1163 -201.29999,76.28775 -276.97191,0.77014c-76.159,-76.00369 -76.33029,-203.44366 -0.7695,-279.92096c76.04649,-76.9689 203.55766,-77.14175 280.07735,-0.7766c77.01093,76.85536 77.18359,205.72221 0.77594,283.0551c-76.89743,77.82864 -205.83426,78.0029 -283.20886,0.78311c-77.86989,-77.71414 -78.04401,-208.01984 -0.78239,-286.21552c77.75548,-78.69553 208.12993,-78.87128 286.36656,-0.7896c78.73602,78.58012 78.91162,210.33662 0.78888,289.4023c-78.6207,79.56967 -210.44473,79.74686 -289.55057,0.79614c-79.60941,-79.45331 -79.78644,-212.67276 -0.79544,-292.6156c79.49313,-80.45107 212.77881,-80.62971 292.76108,-0.80275c80.49002,80.33376 80.66855,215.02824 0.80203,295.85558c-80.3728,81.33978 -215.13225,81.5199 -295.99821,0.80939c-81.37793,-81.22147 -81.55788,-217.40326 -0.80865,-299.12242c81.25977,-82.23579 217.50514,-82.41738 299.26213,-0.81602c82.27313,82.11655 82.45459,219.79791 0.81528,302.4162c-82.15399,83.13925 -219.8976,83.3223 -302.55293,0.82272c-83.17572,-83.01895 -83.35867,-222.21225 -0.82196,-305.73714c83.05563,-84.05005 222.30974,-84.23463 305.8708,-0.82947c84.08572,83.92885 84.27011,224.64647 0.8287,309.08537c-83.96466,84.96841 -224.74171,85.15445 -309.21593,0.83624c-85.00317,-84.84619 -85.18907,-227.10062 -0.83543,-312.46101c84.8811,-85.89417 227.19354,-86.08176 312.58835,-0.84306c85.92816,85.77103 86.11554,229.57486 0.84225,315.86426c-85.80505,86.82748 -229.66539,87.01663 -315.98836,0.84991c-86.86056,-86.7034 -87.04948,-232.06923 -0.84906,-319.2952c86.73653,-87.76847 232.15736,-87.95911 319.416,-0.8568c87.8006,87.64334 87.99103,234.58385 0.85593,322.75401c-87.67557,88.71704 -234.66956,88.90918 -322.87143,0.86371c-88.74823,-88.59091 -88.9402,-237.11888 -0.86284,-326.24084c88.62221,-89.67327 237.20207,-89.867 326.35484,-0.87067c89.70349,89.54613 89.89703,239.67438 0.86978,329.75583c-89.57651,90.63724 -239.75507,90.83249 -329.86636,0.87769c-90.6665,-90.50906 -90.86156,-242.25049 -0.87677,-333.29919c90.53847,-91.60892 242.32858,-91.80575 333.40613,-0.88469c91.63721,91.47974 91.83386,244.84731 0.88379,336.87099c-91.50815,92.58844 -244.92276,92.78687 -336.97432,0.89175c-92.61568,-92.45819 -92.81387,-247.46492 -0.89084,-340.47144c92.48563,-93.57574 247.5377,-93.7757 340.57109,-0.89886c93.60199,93.44449 93.80176,250.10352 0.89792,344.10071c-93.47092,94.57095 -250.17355,94.77249 -344.19655,0.90601c-94.59613,-94.43866 -94.79747,-252.76315 -0.90506,-347.7589c94.46404,-95.57404 252.8304,-95.77718 347.85091,-0.91318c95.59814,95.44075 95.80109,255.44392 0.9122,351.44612c-95.46506,96.58511 -255.50833,96.78989 -351.53424,0.92044c-96.60819,-96.45078 -96.81271,-258.14598 -0.91942,-355.16266c96.474,-97.60419 258.2075,-97.81056 355.24678,-0.92767c97.62616,97.46881 97.83228,260.86942 0.92667,358.90857c-97.49094,98.63129 -260.92799,98.83929 -358.98866,0.93497c-98.65217,-98.49487 -98.8599,-263.61432 -0.93393,-362.68404c98.51588,-99.66653 263.66991,-99.87613 362.75999,-0.94229c99.68625,99.52901 99.8956,266.38081 0.94125,366.48921c-99.54889,100.70984 -266.4334,100.92108 -366.56097,0.94965c-100.7284,-100.57126 -100.9394,-269.16907 -0.94861,-370.32423c100.59,-101.76136 269.21854,-101.97423 370.39175,-0.95709c101.77872,101.62173 101.99136,271.97917 0.95599,374.18929c-101.63925,102.82111 -272.02545,103.03558 -374.25247,0.96454c-102.83725,-102.68033 -103.05154,-274.81116 -0.96344,-378.08452c102.69672,-103.88903 274.85428,-104.10521 378.14331,-0.97202c103.90399,103.74727 104.11993,277.66524 0.97089,382.01009c-103.76236,104.96533 -277.70509,105.18317 -382.06439,0.97955c-104.97902,-104.82242 -105.19663,-280.5415 -0.97839,-385.96614c104.83632,-106.0499 280.57803,-106.26945 386.01587,-0.98711c106.06238,105.90594 106.28168,283.44003 0.98596,389.95282c-105.91858,107.14294 -283.47321,107.36414 -389.99796,0.99469c-107.15409,-106.9978 -107.37502,-286.36093 -0.99352,-393.97031c107.0092,-108.24433 286.39075,-108.46724 394.01077,-1.00237c108.25421,108.09818 108.47687,289.30446 1.00116,398.01881c-108.10825,109.35425 -289.33075,109.57886 -398.05446,1.01007c-109.36278,-109.20697 -109.58713,-292.27055 -1.00883,-402.09844c109.21571,-110.47261 292.2933,-110.69893 402.12921,-1.01775c110.47986,110.32423 110.70587,295.25938 1.01654,406.20927c-110.33167,111.59961 -295.27859,111.82764 -406.23516,1.02551c-111.60545,-111.45004 -111.83321,-298.27106 -1.02425,-410.35158c111.45612,-112.73513 298.28661,-112.96491 410.37245,-1.03331c112.73956,112.58449 112.96912,301.30576 1.03198,414.52551c-112.58914,113.87933 -301.3176,114.11084 -414.54124,1.04114c-113.88241,-113.72757 -114.11362,-304.36356 -1.03984,-418.73118c113.73084,-115.03223 304.37164,-115.26548 418.74172,-1.04902c115.03387,114.87933 115.26691,307.44456 1.04773,422.9688c-114.88116,116.19385 -307.44882,116.42883 -422.97409,1.05688c-116.19407,-116.03979 -116.42877,-310.54886 -1.0556,-427.23843c116.04021,-117.36424 310.54928,-117.60101 427.23843,-1.06489c117.36151,117.2076 117.59979,313.67215 1.06744,431.53647"/>
   <path fill="none" fill-opacity="0.50273" fill-rule="nonzero" stroke="url(#linearGradient3342)" stroke-width="1.25641" stroke-linecap="round" stroke-miterlimit="4" stroke-opacity="0.25098" id="path3334" d="m482.77435,326.25a156.52438,156.52438 0 1 1 -313.04872,0a156.52438,156.52438 0 1 1 313.04872,0z"/>
   <path fill="none" fill-opacity="0.50273" fill-rule="nonzero" stroke="url(#linearGradient3348)" stroke-width="2.51283" stroke-linecap="round" stroke-miterlimit="4" stroke-opacity="0.25098" id="path3346" d="m482.77435,326.25a156.52438,156.52438 0 1 1 -313.04872,0a156.52438,156.52438 0 1 1 313.04872,0z"/>
   <path fill="none" stroke="url(#linearGradient3258)" stroke-width="1.7311" stroke-miterlimit="4" stroke-opacity="0.25098" id="path2280" d="m394.3421,326.25a68.0921,68.0921 0 1 1 -136.1842,0a68.0921,68.0921 0 1 1 136.1842,0z"/>
   <path fill="none" stroke="url(#linearGradient3384)" stroke-width="1.7311" stroke-miterlimit="4" stroke-opacity="0.25098" id="path3376" d="m394.3421,326.25a68.0921,68.0921 0 1 1 -136.1842,0a68.0921,68.0921 0 1 1 136.1842,0z"/>
  </g>
  <g transform="rotate(-0.7571688890457153 326.2503356933601,326.27642822265517) " display="inline" id="layer3">
   <path fill="none" fill-opacity="0.50273" fill-rule="nonzero" stroke="#ffffff" stroke-width="1.08959" stroke-linecap="round" stroke-miterlimit="4" stroke-opacity="0.37647" id="path3273" d="m473.83044,326.27643a147.58014,147.60654 0 1 1 -295.16022,0a147.58014,147.60654 0 1 1 295.16022,0z"/>
  </g>
 </g>
</svg>