<svg width="65" height="40" xmlns="http://www.w3.org/2000/svg">
 <g>
  <title>Layer 1</title>
  <path transform="rotate(-19.966350555419922 -56.50331497192384,6.382167816162125) " id="svg_1" opacity="0.75" fill="#231F20" d="m-59.613827,9.885315c-14.908642,-5.706186 -25.977283,-12.367861 -26.630962,-15.864868c-0.057259,0.060831 -0.269104,0.32789 -0.313957,0.394651c-2.018288,3.017786 9.231659,10.970251 25.843681,17.328516c16.612976,6.358261 32.297443,8.715069 34.315727,5.697281c0.207081,-0.309341 0.217583,-0.967346 0.14315,-1.366457c-2.534561,2.703985 -17.113018,0.028189 -33.357639,-6.189123z"/>
  <path transform="rotate(-24.81101417541504 -59.46151351928711,-16.387619018554684) " id="svg_2" fill="#f05f40" d="m-30.335873,-2.450996c1.961586,-3.617172 -9.537117,-12.72768 -25.68335,-20.348816c-16.145298,-7.621136 -30.824284,-10.867519 -32.78587,-7.25124s9.537117,12.72768 25.68335,20.34882c16.145302,7.62114 30.824284,10.867527 32.78587,7.251236zm-32.319355,-9.201204c-11.930901,-5.656944 -20.323532,-12.612974 -18.744987,-15.536589s12.530052,-0.707785 24.460949,4.94916s20.323536,12.612972 18.744987,15.536589c-1.938408,3.591385 -10.453453,1.691214 -24.460949,-4.94916z"/>
  <path transform="rotate(-4.511729717254639 29.564819335937536,12.25405120849607) " id="svg_3" d="m34.996033,-7.586967c-0.633926,0.02655 -1.210159,0.27188 -1.681026,0.605715c0.002125,1.789982 -2.681427,3.329084 -3.588181,4.568332c0.555977,0.245634 0.272556,0.389985 -0.248722,0.588828c-0.041054,0.334568 0.1129,0.660591 0.595348,0.977945c-0.624973,5.567653 -1.453156,12.255866 -2.102997,17.877438c1.48307,0.01836 2.980038,0.14851 4.53791,0.091345c-0.001747,-4.328428 0.612392,-11.243135 0.791656,-15.424049c-0.024395,-1.357427 -0.121563,-3.194834 3.165833,-3.837394c-1.675301,-1.965549 1.428505,-4.746712 -1.34174,-5.448159c-0.03516,-0.000152 -0.070663,-0.001165 -0.105629,0c-0.007454,0.000253 -0.014912,-0.000303 -0.022453,0l0,0l0,0zm2.820385,22.837303c-1.137363,0.886419 -2.844501,1.352173 -3.412361,1.808876c-1.296719,1.125891 -3.468468,-0.421072 -6.48642,0.39835c0.015636,-0.136158 0.036911,-0.288794 0.052818,-0.426271c-0.017399,-0.000256 -0.035423,0.000153 -0.052818,0c-1.606281,0.134686 -2.932552,-1.025492 -3.038017,-2.054054c1.33934,-1.580868 -3.435444,-2.394024 -4.703833,-0.775013c-0.951111,1.808899 -0.098833,3.657919 1.153555,5.407631c1.431181,2.148876 -2.139914,4.012527 -3.188745,6.006502c-0.998041,1.263367 -1.030247,2.721645 0.648182,3.88129c2.288248,1.80608 7.095137,2.476715 11.473322,2.494011c0.780041,0.029774 1.555405,0.055058 2.336727,0.077785c13.898502,0.436634 8.286892,-4.671734 6.098576,-9.09601c-1.404381,-2.88027 0.357498,-4.836992 1.512241,-5.66585c0.641384,-0.977236 1.454277,-3.058014 -2.393227,-2.057121l0,-0.000126l0,0zm-8.338314,-17.074429c0.587345,-1.584595 -1.954868,0.094259 0,0z" stroke-linecap="null" stroke-linejoin="null" fill="#000222"/>
 </g>
</svg>